<?xml version="1.0" encoding="utf-8"?>
<!-- Generator: Adobe Illustrator 25.2.0, SVG Export Plug-In . SVG Version: 6.00 Build 0)  -->
<svg version="1.1" id="Layer_1" xmlns="http://www.w3.org/2000/svg" xmlns:xlink="http://www.w3.org/1999/xlink" x="0px" y="0px"
	 viewBox="0 0 100 55" style="enable-background:new 0 0 100 55;" xml:space="preserve">
<style type="text/css">
	.st0{fill:#FF3300;}
</style>
<path class="st0" d="M82.59,37.83c4.28,0,7.09-2.21,7.09-5.66c0-8.62-10.8-3.83-10.8-8.51c0-1.46,1.31-2.44,3.26-2.44
	c1.61,0,3.71,0.86,3.97,3.04h3.41c-0.19-3.56-3.11-5.93-7.39-5.93c-3.94,0-6.71,2.18-6.71,5.44c0,8.06,10.72,3.45,10.72,8.47
	c0,1.39-1.39,2.55-3.56,2.55c-2.44,0-4.01-1.24-4.24-3.41h-3.41C75.2,35.35,78.16,37.83,82.59,37.83 M53.71,24.85
	c0-2.29,1.72-3.64,3.79-3.64c2.06,0,3.79,1.35,3.79,3.64c0,2.25-1.72,3.6-3.79,3.6C55.44,28.45,53.71,27.1,53.71,24.85 M52.21,39.48
	c0-0.98,0.3-1.91,1.27-2.66c0.6,0.11,1.24,0.15,1.91,0.15h4.39c1.91,0,3.04,0.75,3.04,2.55c0,1.5-0.64,2.62-2.44,2.62H54.8
	C53.3,42.14,52.21,40.98,52.21,39.48 M54.69,45.18h5.85c3.71,0,5.85-2.51,5.85-5.93c0-3.49-2.66-5.21-6.3-5.21h-5.25
	c-1.16,0-2.1-0.41-2.1-1.5c0-0.68,0.34-1.09,1.09-1.91c1.05,0.49,2.29,0.75,3.67,0.75c4.2,0,7.27-2.55,7.27-6.52
	c0-1.69-0.64-3.15-1.65-4.28l2.29-2.62l-2.33-2.06l-2.59,2.96c-0.94-0.34-1.95-0.53-3-0.53c-4.2,0-7.28,2.59-7.28,6.53
	c0,1.54,0.45,2.89,1.28,3.97c-1.35,1.35-2.29,2.4-2.29,3.98c0,1.27,0.52,2.25,1.46,2.93c-1.12,0.9-1.99,2.29-1.99,3.86
	C48.69,42.89,50.79,45.18,54.69,45.18 M32.56,26.05c0.56-3.15,2.47-4.8,5.44-4.8c3.11,0,5.06,1.91,5.29,4.8H32.56z M28.89,27.96
	c0,5.25,3.64,9.86,9.49,9.86c4.65,0,8.06-2.55,8.74-6.45h-3.64c-0.52,2.14-2.32,3.34-5.1,3.34c-3.3,0-5.62-2.44-5.92-6h14.44
	c0.04-0.34,0.08-0.94,0.08-1.42c0-4.8-3.11-8.96-8.96-8.96C32.19,18.33,28.89,22.68,28.89,27.96 M13.96,32.05
	c0-1.99,1.61-3.26,4.09-3.26h4.88v0.45c0,3.49-1.99,5.7-5.44,5.7C15.39,34.94,13.96,33.78,13.96,32.05 M22.93,25.11
	c0,0.68-0.41,1.12-1.28,1.12h-3.94c-4.46,0-7.35,2.25-7.35,5.89c0,3.38,2.55,5.7,6.41,5.7c2.85,0,5.25-1.35,6.15-3.38v3.08h3.64
	V25.34c0-4.2-3.23-7.01-8.1-7.01c-4.46,0-7.84,2.78-8.14,6.49h3.38c0.11-1.91,2.03-3.56,4.65-3.56
	C21.28,21.25,22.93,22.83,22.93,25.11 M70.44,16.18c-1.77,0-3.2-1.42-3.2-3.18c0-1.75,1.43-3.18,3.2-3.18s3.2,1.42,3.2,3.18
	C73.64,14.76,72.21,16.18,70.44,16.18 M68.62,18.63h3.64v18.9h-3.64V18.63z"/>
</svg>
