<svg xmlns="http://www.w3.org/2000/svg" width="147" height="214.8" viewBox="0 0 147 214.8">
  <path id="Path_168" data-name="Path 168" d="M84.8,241.4c38.7,0,72.9-20.7,72.9-60.9,0-26.1-17.7-44.7-40.2-51.6,17.4-7.5,31.8-25.8,31.8-47.7,0-32.1-27.3-54.6-65.7-54.6-37.2,0-62.4,24-64.2,60.9H39.2C41,60.8,57.5,45.2,83.6,45.2c27.3,0,44.7,13.2,44.7,36s-16.2,39.6-43.5,39.6H68.9v18.6H84.8c31.8,0,51.9,14.1,51.9,41.1s-20.1,42.3-51.9,42.3c-30.9,0-54-20.1-54-49.5H10.7C10.7,213.5,43.1,241.4,84.8,241.4Z" transform="translate(-10.7 -26.6)" fill="red"/>
</svg>
